<svg id="Capa_1" enable-background="new 0 0 512 512" height="512" viewBox="0 0 512 512" width="512" xmlns="http://www.w3.org/2000/svg"><g><path d="m139.352 95.531c0 23.615 19.212 42.828 42.828 42.828 9.4 0 17.83-3.083 24.378-8.914 1.282-1.143 2.501-2.4 3.624-3.738 2.663-3.173 2.248-7.904-.925-10.566-3.174-2.663-7.904-2.248-10.566.925-.658.784-1.368 1.517-2.11 2.178-3.811 3.394-8.656 5.115-14.401 5.115-15.344 0-27.828-12.483-27.828-27.828s12.483-27.828 27.828-27.828c5.578 0 10.956 1.642 15.554 4.748 3.433 2.319 8.095 1.416 10.413-2.017 2.319-3.432 1.416-8.094-2.017-10.413-7.087-4.788-15.369-7.318-23.951-7.318-23.615 0-42.827 19.213-42.827 42.828zm133.197-16.965c0-14.261-12.068-25.863-26.902-25.863h-18.775c-.004 0-.008 0-.012 0s-.008 0-.011 0c-4.142 0-7.5 3.358-7.5 7.5v70.655c0 4.142 3.358 7.5 7.5 7.5s7.5-3.358 7.5-7.5v-23.529l25.07 28.484c1.482 1.685 3.552 2.545 5.633 2.545 1.76 0 3.527-.616 4.952-1.87 3.109-2.737 3.412-7.476.675-10.585l-19.406-22.048c12.141-2.494 21.276-12.883 21.276-25.289zm-26.902 10.862c-2.587 0-7.195.02-11.188.04-.021-3.914-.041-8.397-.041-10.902 0-2.118-.012-6.769-.024-10.863h11.252c6.452 0 11.902 4.975 11.902 10.863s-5.449 10.862-11.901 10.862zm165.866 206.863v-25.603c0-20.677-16.822-37.5-37.5-37.5h-110.513l-.001-42.127h101.621c20.678 0 37.5-16.822 37.5-37.5v-116.061c0-20.678-16.822-37.5-37.5-37.5h-146.715c-4.142 0-7.5 3.358-7.5 7.5s3.358 7.5 7.5 7.5h146.714c12.407 0 22.5 10.093 22.5 22.5v116.062c0 12.407-10.093 22.5-22.5 22.5h-218.238c-12.407 0-22.5-10.093-22.5-22.5v-116.062c0-12.407 10.093-22.5 22.5-22.5h41.524c4.142 0 7.5-3.358 7.5-7.5s-3.358-7.5-7.5-7.5h-41.524c-20.678 0-37.5 16.822-37.5 37.5v116.062c0 20.678 16.822 37.5 37.5 37.5h101.617l.001 42.127h-110.512c-20.678 0-37.5 16.822-37.5 37.5v25.625c-56.278 3.934-100.487 50.961-100.487 107.704 0 22.503 6.85 44.064 19.809 62.354 20.101 28.369 53.823 45.628 88.173 45.628 58.899 0 107.991-48.696 107.991-107.982 0-57.024-44.428-103.859-100.487-107.726v-25.603c0-12.406 10.093-22.5 22.5-22.5h236.026c12.407 0 22.5 10.093 22.5 22.5v25.609c-35.048 2.475-67.279 22.151-85.384 52.605-2.117 3.561-.946 8.163 2.614 10.279 3.562 2.118 8.164.947 10.279-2.613 16.7-28.092 47.351-45.542 79.99-45.542 51.273 0 92.987 41.714 92.987 92.986 0 27.005-11.575 51.354-30.02 68.358-4.478-17.69-16.256-32.781-32.403-41.391 4.775-6.373 7.607-14.282 7.607-22.841 0-7.346 0-29.499 0-37.421 0-14.05-11.43-25.48-25.48-25.48h-25.38c-14.05 0-25.48 11.431-25.48 25.48v37.421c0 8.566 2.837 16.481 7.62 22.857-5.352 2.862-10.326 6.462-14.697 10.702-8.751 8.497-14.806 19.088-17.719 30.672-18.445-17.004-30.021-41.353-30.021-68.359 0-7.397.871-14.76 2.587-21.88.971-4.027-1.506-8.078-5.533-9.049-4.024-.971-8.078 1.506-9.049 5.533-1.994 8.271-3.005 16.814-3.005 25.396.001 59.809 49.317 107.989 107.988 107.989 58.688 0 107.987-48.089 107.987-107.987 0-57.023-44.429-103.857-100.487-107.722zm-303.531 200.709c-17.774 0-34.945-5.122-49.62-14.378 1.291-11.452 6.459-22.041 14.82-30.159 4.807-4.663 10.533-8.326 16.705-10.726 5.39 2.915 11.554 4.573 18.1 4.573 6.547 0 12.714-1.659 18.104-4.575 17.271 6.702 29.425 22.501 31.52 40.881-14.37 9.104-31.394 14.384-49.629 14.384zm-2.328-104.844c7.438-2.448 15.431-1.347 21.927 3.026l3.576 2.407v10.55c0 12.776-10.394 23.17-23.17 23.17s-23.17-10.394-23.17-23.17v-9.119zm-20.838-8.927v-12.51c0-5.779 4.701-10.48 10.48-10.48h25.381c5.779 0 10.48 4.701 10.48 10.48v9.258c-9.365-4.603-20.099-5.396-30.197-2.067zm116.158 20.789c0 27.004-11.576 51.353-30.023 68.355-4.477-17.694-16.254-32.786-32.399-41.395 4.774-6.373 7.605-14.281 7.605-22.839v-37.421c0-14.05-11.43-25.48-25.48-25.48h-25.381c-14.05 0-25.48 11.431-25.48 25.48v37.421c0 8.564 2.836 16.479 7.617 22.854-5.347 2.859-10.321 6.459-14.698 10.705-8.767 8.512-14.826 19.117-17.733 30.709-4.78-4.393-9.131-9.312-12.955-14.709-11.152-15.739-17.047-34.302-17.047-53.68 0-6.386.653-12.776 1.94-18.993 8.892-42.877 47.18-73.998 91.042-73.998 51.276-.001 92.992 41.715 92.992 92.991zm179.869-33.299c0-5.779 4.701-10.48 10.48-10.48h25.38c5.779 0 10.48 4.701 10.48 10.48v9.258c-9.365-4.603-20.098-5.395-30.197-2.066l-16.144 5.318v-12.51zm0 28.302 20.837-6.865c7.439-2.449 15.43-1.347 21.928 3.025l3.576 2.406v10.552c0 12.776-10.394 23.17-23.17 23.17s-23.17-10.394-23.17-23.17v-9.118zm23.17 97.979c-18.231 0-35.25-5.278-49.619-14.379 1.298-11.459 6.466-22.048 14.818-30.158 4.796-4.652 10.521-8.315 16.703-10.725 5.389 2.914 11.553 4.572 18.098 4.572 6.546 0 12.712-1.658 18.101-4.574 17.274 6.703 29.43 22.501 31.526 40.879-14.369 9.105-31.392 14.385-49.627 14.385zm-105.964-365.361 7.99-44.272 13.137 44.526c.026.089.054.178.083.265 1.247 3.714 4.708 6.201 8.622 6.201h.046c3.933-.02 7.392-2.546 8.606-6.287.028-.086.055-.173.08-.26l12.684-44.494 8.485 44.397c.777 4.069 4.707 6.74 8.774 5.959 4.069-.777 6.736-4.706 5.959-8.774l-13.172-68.917c-.825-4.044-4.279-7.032-8.4-7.264-4.114-.225-7.89 2.348-9.164 6.273-.028.086-.054.172-.079.259l-13.915 48.814-14.425-48.892c-.026-.089-.054-.178-.083-.266-1.314-3.915-5.121-6.462-9.231-6.18-4.121.276-7.543 3.301-8.34 7.441l-12.419 68.805c-.736 4.076 1.972 7.977 6.049 8.713 4.071.734 7.977-1.971 8.713-6.047z"/></g></svg>