<svg id="Capa_1" enable-background="new 0 0 512.966 512.966" height="512" viewBox="0 0 512.966 512.966" width="512" xmlns="http://www.w3.org/2000/svg"><g><path d="m370.479 109.807c44.607 34.687 70.539 86.613 71.521 142.882h-26.801c-3.034 0-5.768 1.827-6.929 4.63s-.519 6.028 1.626 8.174l31.131 31.132c1.406 1.406 3.314 2.196 5.303 2.196s3.897-.79 5.303-2.196l31.131-31.132c2.145-2.146 2.787-5.371 1.626-8.174s-3.896-4.63-6.929-4.63h-20.461c-.984-60.932-29.025-117.173-77.313-154.723-3.269-2.543-7.982-1.952-10.524 1.316-2.543 3.271-1.954 7.983 1.316 10.525zm88.876 157.882-13.025 13.025-13.025-13.025zm-266.927-170.219v-17.929c0-35.587 28.952-64.539 64.539-64.539s64.539 28.952 64.539 64.539v17.929c-7.628-.869-14.693 4.648-14.692 12.5v34.751c0 .948.115 1.869.316 2.757-2.391 5.906-6.985 14.211-15.496 21.231-3.339 2.754-6.976 5.068-10.868 6.923-3.544-6.493-10.436-10.909-18.34-10.909h-16.235c-11.513 0-20.88 9.367-20.88 20.88s9.367 20.88 20.88 20.88h16.235c9.581 0 17.654-6.494 20.102-15.306 6.781-2.629 13.044-6.271 18.651-10.896 9.052-7.466 14.643-16.047 18.032-23.064.034 0 .068.005.102.005h14.635c9.511 0 17.249-7.738 17.249-17.249v-25.253c0-8.64-6.392-15.796-14.692-17.038v-18.14c0-43.858-35.681-79.539-79.539-79.539s-79.539 35.681-79.539 79.539v18.14c-8.3 1.242-14.692 8.398-14.692 17.038v25.253c0 9.511 7.738 17.249 17.249 17.249h14.635c6.893 0 12.5-5.607 12.5-12.5v-34.752c-.014-8.046-7.092-13.241-14.691-12.5zm69.998 94.013h-16.235c-3.242 0-5.88-2.638-5.88-5.88 0-3.243 2.638-5.88 5.88-5.88h16.235c3.234 0 5.866 2.625 5.879 5.857v.043c-.011 3.233-2.643 5.86-5.879 5.86zm59.387-79.013h12.135c1.24 0 2.249 1.009 2.249 2.249v25.253c0 1.24-1.009 2.249-2.249 2.249h-12.135zm-129.693 29.751h-12.135c-1.24 0-2.249-1.009-2.249-2.249v-25.253c0-1.24 1.009-2.249 2.249-2.249h12.135zm299.243 288.262c-5.474-5.481-11.81-10.066-18.686-13.579 5.862-7.334 9.379-16.62 9.379-26.717v-43.156c0-15.569-12.667-28.235-28.236-28.235h-29.271c-15.569 0-28.236 12.666-28.236 28.235v43.156c0 23.64 19.232 42.872 42.871 42.872 7.545 0 14.637-1.967 20.802-5.403 7.752 2.94 14.879 7.536 20.766 13.431 11.1 11.1 17.213 25.858 17.213 41.557 0 3.839-1.493 7.446-4.203 10.156-2.71 2.711-6.314 4.203-10.147 4.203h-88.86c-7.913 0-14.35-6.441-14.35-14.359 0-15.698 6.113-30.457 17.213-41.557 2.929-2.93 2.929-7.678 0-10.607-2.929-2.928-7.678-2.928-10.606 0-13.934 13.934-21.607 32.459-21.607 52.164 0 16.188 13.167 29.359 29.35 29.359h88.86c7.84 0 15.21-3.053 20.753-8.596 5.543-5.544 8.597-12.918 8.597-20.764.001-19.705-7.673-38.23-21.602-52.16zm-24.308-40.296c0 15.369-12.503 27.872-27.871 27.872s-27.871-12.503-27.871-27.872v-11.347l24.82-8.176c8.917-2.94 18.5-1.616 26.29 3.626l4.632 3.117zm0-30.592c-10.909-5.926-23.656-7.117-35.615-3.178l-20.127 6.631v-16.017c0-7.298 5.938-13.235 13.236-13.235h29.271c7.298 0 13.236 5.938 13.236 13.235v12.564zm-91.257 47.122c-2.456-3.335-7.151-4.047-10.486-1.591-31.937 23.522-69.85 35.956-109.642 35.956-.288 0-.578-.008-.866-.009v-27.663c0-3.033-1.827-5.769-4.63-6.929-2.801-1.161-6.028-.52-8.173 1.625l-31.131 31.131c-1.407 1.407-2.197 3.314-2.197 5.304s.79 3.896 2.197 5.304l31.131 31.132c2.155 2.155 5.395 2.775 8.173 1.625 2.803-1.16 4.63-3.896 4.63-6.929v-19.599c.288.001.578.009.866.009 43.015 0 84.005-13.444 118.537-38.878 3.335-2.457 4.048-7.152 1.591-10.488zm-135.993 50.849-13.025-13.025 13.025-13.024zm-45.853-68.54c.953-3.556.464-7.27-1.377-10.458l-17.768-30.775c-1.841-3.188-4.813-5.469-8.369-6.422-3.557-.951-7.271-.464-10.458 1.378l-5.657 3.266c-6.558-5.197-13.803-9.386-21.558-12.463v-6.516c0-7.6-6.183-13.783-13.783-13.783h-35.536c-7.6 0-13.782 6.184-13.782 13.783v6.517c-7.755 3.076-15 7.264-21.559 12.462l-5.656-3.266c-3.188-1.841-6.901-2.328-10.459-1.378-3.556.953-6.528 3.233-8.369 6.422l-17.769 30.775c-1.841 3.188-2.33 6.902-1.377 10.459s3.234 6.528 6.422 8.368l5.651 3.263c-.6 4.106-.904 8.29-.904 12.45s.304 8.344.904 12.45l-5.652 3.263c-6.581 3.801-8.843 12.246-5.044 18.827l17.768 30.775c3.799 6.581 12.244 8.844 18.827 5.045l5.657-3.266c6.561 5.198 13.805 9.387 21.559 12.462v6.517c0 7.6 6.183 13.782 13.782 13.782h35.536c7.6 0 13.783-6.183 13.783-13.782v-6.517c7.754-3.075 14.999-7.264 21.558-12.462l5.658 3.267c6.581 3.798 15.026 1.534 18.826-5.046l17.768-30.775c3.799-6.581 1.537-15.026-5.044-18.827l-5.651-3.263c.6-4.107.904-8.291.904-12.45 0-4.158-.304-8.343-.904-12.45l5.651-3.262c3.189-1.841 5.469-4.813 6.422-8.37zm-27.02 13.105c.565 3.613.852 7.307.852 10.978 0 3.672-.287 7.365-.852 10.978-.873 5.576 1.83 11.221 6.724 14.045l5.321 3.072-16.551 28.666-5.327-3.075c-4.899-2.829-11.145-2.345-15.539 1.21-5.741 4.644-12.131 8.337-18.992 10.979-5.266 2.027-8.804 7.19-8.804 12.847v6.135h-33.101v-6.135c0-5.656-3.538-10.819-8.804-12.847-6.86-2.642-13.25-6.335-18.991-10.979-4.393-3.552-10.636-4.039-15.539-1.21l-5.327 3.076-16.551-28.667 5.319-3.071c4.896-2.824 7.599-8.47 6.726-14.046-.565-3.612-.852-7.306-.852-10.978s.287-7.365.852-10.978c.873-5.574-1.83-11.219-6.724-14.045l-5.321-3.072 16.55-28.666 5.328 3.076c4.903 2.83 11.147 2.343 15.539-1.21 5.739-4.643 12.129-8.336 18.994-10.979 5.264-2.029 8.801-7.191 8.801-12.846v-6.136h33.101v6.135c0 5.656 3.538 10.819 8.803 12.847 6.863 2.643 13.253 6.337 18.993 10.979 4.393 3.555 10.637 4.04 15.538 1.21l5.328-3.076 16.55 28.666-5.322 3.072c-4.893 2.826-7.595 8.47-6.722 14.045zm-107.215-112.407c.697 4.107 4.639 6.82 8.649 6.139 4.083-.693 6.832-4.566 6.139-8.65-1.738-10.236-2.619-20.737-2.619-31.21 0-44.212 15.612-86.481 44.124-119.942l14.71 16.617c2.021 2.285 5.222 3.098 8.06 2.12 2.868-.989 4.858-3.607 5.042-6.635l2.675-43.945c.251-4.134-2.896-7.69-7.031-7.942l-43.945-2.676c-3.041-.188-5.869 1.474-7.197 4.201-1.329 2.727-.885 5.986 1.126 8.257l16.532 18.675c-31.704 36.423-49.096 82.763-49.096 131.27 0 11.311.953 22.657 2.831 33.721zm71.352-178.932-1.119 18.386-17.266-19.504zm-33.855 244.368c-4.142 0-7.5 3.357-7.5 7.5s3.358 7.5 7.5 7.5c23.682 0 42.948 19.267 42.948 42.948s-19.267 42.948-42.948 42.948-42.948-19.267-42.948-42.948c0-13.271 5.995-25.591 16.447-33.799 3.257-2.559 3.825-7.272 1.266-10.53-2.558-3.259-7.273-3.825-10.531-1.267-14.097 11.07-22.182 27.689-22.182 45.596 0 31.953 25.996 57.948 57.948 57.948s57.948-25.995 57.948-57.948-25.996-57.948-57.948-57.948z"/></g></svg>