<?xml version="1.0" encoding="iso-8859-1"?>
<!-- Generator: Adobe Illustrator 19.0.0, SVG Export Plug-In . SVG Version: 6.00 Build 0)  -->
<svg version="1.1" id="Capa_1" xmlns="http://www.w3.org/2000/svg" xmlns:xlink="http://www.w3.org/1999/xlink" x="0px" y="0px"
	 viewBox="0 0 511.999 511.999" style="enable-background:new 0 0 511.999 511.999;" xml:space="preserve">
<g>
	<g>
		<path d="M300.776,43.326c-15.986-15.987-38.77-22.784-60.947-18.193c-2.935,0.607-5.227,2.901-5.834,5.834
			c-4.593,22.176,2.207,44.961,18.193,60.947c12.698,12.697,29.686,19.6,47.252,19.6c4.547,0,9.134-0.463,13.694-1.407
			c2.935-0.607,5.227-2.901,5.834-5.834C323.562,82.095,316.761,59.311,300.776,43.326z M305.045,96.183
			c-15.553,1.676-31.042-3.71-42.23-14.896c-11.185-11.186-16.57-26.671-14.896-42.23c15.564-1.676,31.044,3.71,42.231,14.895
			C301.335,65.138,306.72,80.622,305.045,96.183z"/>
	</g>
</g>
<g>
	<g>
		<path d="M509.611,302.625c-4.108-8.799-13.038-14.485-22.75-14.485c-2.904,0-5.743,0.492-8.445,1.463l-138.118,45.434
			l-65.734-41.106h35.439c8.674,0,16.839-3.38,22.996-9.524c6.143-6.142,9.526-14.313,9.526-23.008
			c0-17.938-14.589-32.532-32.522-32.532H292.56c10.323-2.781,21.017-4.259,31.835-4.328c4.837-0.028,9.563,0.206,14.128,0.7
			c0.005,0.001,0.009,0.001,0.014,0.002c0.002,0,0.004,0.001,0.006,0.001c38.31,4.039,72.113,25.129,92.746,57.868
			c1.429,2.267,3.868,3.509,6.364,3.509c1.37,0,2.755-0.375,4-1.158c3.511-2.212,4.564-6.853,2.351-10.364
			c-21.895-34.741-57.05-57.758-97.18-63.921V176.06h28.071c62.385,0,113.138-50.754,113.138-113.138V38.34
			c0-4.15-3.363-7.514-7.514-7.514h-35.583c-62.385,0-113.138,50.754-113.138,113.138v24.54c0,0.013-0.002,0.026-0.002,0.039v41.125
			c-2.476-0.113-4.978-0.169-7.492-0.156c-24.771,0.159-48.983,6.857-70.186,19.357h-75.525c-1.411,0-2.793,0.397-3.989,1.147
			l-71.818,44.995l-14.951-25.384c-2.104-3.576-6.711-4.766-10.289-2.661l-56.282,33.149c-1.717,1.012-2.962,2.664-3.461,4.594
			s-0.211,3.978,0.801,5.695l10.699,18.165L3.702,323.646c-3.575,2.106-4.767,6.713-2.66,10.289c1.4,2.379,3.906,3.702,6.481,3.702
			c1.297,0,2.609-0.336,3.807-1.041l25.601-15.08l58.242,98.883L3.702,474.285c-3.576,2.106-4.767,6.713-2.66,10.288
			c1.401,2.379,3.907,3.701,6.481,3.701c1.297,0,2.609-0.336,3.807-1.041l91.471-53.885l10.702,18.17
			c1.4,2.379,3.906,3.702,6.481,3.702c1.297,0,2.609-0.336,3.807-1.041l56.281-33.149c3.575-2.106,4.767-6.713,2.66-10.288
			l-13.993-23.756l33.806-20.693l66.4,40.295c1.175,0.713,2.523,1.09,3.898,1.09h89.149c1.238,0,2.458-0.307,3.55-0.892
			l132.89-71.221C510.431,329.33,515.34,314.857,509.611,302.625z M346.827,143.963c-0.001-54.097,44.011-98.109,98.109-98.109
			h28.069v17.068c0,54.097-44.012,98.11-98.11,98.11h-16.348l69.691-64.262c3.051-2.813,3.243-7.567,0.431-10.618
			c-2.813-3.051-7.568-3.244-10.618-0.431l-71.223,65.675V143.963z M122.638,437.416l-10.683-18.138
			c-0.007-0.011-0.011-0.023-0.018-0.034c-0.007-0.011-0.015-0.021-0.021-0.032l-65.792-111.7c-0.019-0.034-0.034-0.068-0.053-0.102
			c-0.02-0.034-0.043-0.063-0.063-0.096l-10.64-18.066l43.332-25.523l73.403,124.623c0.001,0.003,0.002,0.005,0.004,0.007
			c0.001,0.001,0.002,0.002,0.002,0.003l13.862,23.533L122.638,437.416z M491.417,322.276L360.106,392.65h-85.162l-68.519-41.581
			c-2.404-1.46-5.422-1.454-7.821,0.015l-37.495,22.951l-50.696-86.072l70.336-44.067h129.252c9.646,0,17.493,7.852,17.493,17.503
			c0,4.68-1.819,9.077-5.118,12.375c-3.314,3.307-7.709,5.129-12.376,5.129h-61.628c-3.352,0-6.298,2.22-7.223,5.442
			c-0.925,3.221,0.397,6.667,3.238,8.443l90.924,56.859c1.895,1.184,4.215,1.464,6.332,0.767l141.571-46.569
			c0.077-0.026,0.155-0.052,0.232-0.081c1.081-0.396,2.228-0.595,3.411-0.595c3.898,0,7.483,2.282,9.135,5.822
			C498.3,313.909,496.326,319.724,491.417,322.276z"/>
	</g>
</g>
<g>
</g>
<g>
</g>
<g>
</g>
<g>
</g>
<g>
</g>
<g>
</g>
<g>
</g>
<g>
</g>
<g>
</g>
<g>
</g>
<g>
</g>
<g>
</g>
<g>
</g>
<g>
</g>
<g>
</g>
</svg>
